<svg width="91" height="32" viewBox="0 0 91 32" fill="none" xmlns="http://www.w3.org/2000/svg">
<rect opacity="0.85" x="0.433105" y="0.078125" width="90.24" height="31.3878" rx="15.6939" fill="#F64953"/>
<path d="M45.9517 22H40.3667V11.4111H41.7339V20.79H45.9517V22ZM48.9253 11.4111V22H47.5581V11.4111H48.9253ZM59.6509 11.4111L55.7612 22H54.2437L50.4292 11.4111H51.9468L54.7974 19.6895C54.8931 19.9629 54.9637 20.2796 55.0093 20.6396H55.0435C55.0799 20.3252 55.1597 20.0039 55.2827 19.6758L58.188 11.4111H59.6509ZM66.8423 22H61.1479V11.4111H66.603V12.6279H62.5151V16.0186H66.3022V17.2285H62.5151V20.79H66.8423V22Z" fill="white"/>
<circle cx="20.0035" cy="15.7727" r="7.34696" stroke="white"/>
<circle cx="20.0045" cy="15.7731" r="3.92348" fill="white"/>
</svg>
