<svg width="1920" height="701" viewBox="0 0 1920 701" fill="none" xmlns="http://www.w3.org/2000/svg">
<g clip-path="url(#clip0)">
<path d="M-85.4844 153.36C135.631 19.8768 294.011 1.02809 379.029 0.856737C488.387 0.685385 488.9 53.8031 492.5 60.9999C492.5 110 477.838 167.857 441.5 167C408.933 166.315 404.93 99.5542 419.5 61.0001C448.639 -16.4509 670.422 -3.59841 833.259 36.8406C925.304 59.6304 1138.36 112.578 1148.65 218.473C1154.48 278.447 1095.34 355.726 1033.81 355.555C978.612 355.383 921.533 293.011 932.675 259.598C941.417 233.381 994.724 218.302 1026.95 235.609C1072.37 259.941 1077.51 349.043 1042.38 391.539C997.124 446.371 882.624 427.18 810.976 388.112C720.473 338.762 729.043 274.334 665.28 256.171C545.637 222.243 351.261 402.334 379.029 497.777C389.828 535.131 433.366 555.008 454.449 564.604C520.955 594.933 645.559 576.234 665.28 549C685 521.766 693.048 478.331 665.28 484.5C622.599 493.924 538.321 581.568 593 622.864C637.223 656.277 656.024 657.819 884.681 580.026C952.73 556.893 998.667 545.241 1090.37 521.766C1395.13 443.972 1455.12 467.448 1488.03 492.636C1521.8 518.51 1556.6 568.545 1541.17 602.301C1524.2 639.656 1447.58 652.85 1419.47 622.864C1390.5 592.02 1422.21 524.85 1428.04 513.198C1486.83 394.623 1657.73 369.777 1719.43 360.695C1776.34 352.47 1870.79 346.816 1986.83 379.544" stroke="#CECFDF" stroke-width="4" stroke-miterlimit="10" stroke-linejoin="round" stroke-dasharray="10 5"/>
</g>
<defs>
<clipPath id="clip0">
<rect width="2073" height="701" fill="white" transform="translate(-86)"/>
</clipPath>
</defs>
</svg>
